Simulation
nRows=44
nColumns=15
endheader
time  TH_x TH_y TH_z SC_y  SC_z  SC_x  AC_y  AC_z  AC_x  GH_y  GH_z  GH_yy  EL_x  PS_y
8.6175  0.000000  0.000000  0.000000  -34.88348561066293  2.4369686577598832  -7.370813566317595  41.45478235797837  12.961060891054922  4.12609622788312  108.7576658083969  4.827747807349024  -93.89345278396033  20.58531015620837  120.000000
8.67495  0.000000  0.000000  0.000000  -34.515775909789916  2.3354977526284535  -7.651594301741488  40.947343975373386  12.796535771130994  3.762890411190273  99.55099752122698  5.407215161752748  -84.65629253090522  20.520134334358396  120.000000
8.7324  0.000000  0.000000  0.000000  -34.174400888045874  2.229228112926581  -7.978953832091126  40.46492706134827  12.674359668297262  3.4464827161711002  91.71360552133807  6.558076380827709  -76.55684062235277  20.62426604103353  120.000000
8.78985  0.000000  0.000000  0.000000  -33.91715504028224  2.1675603955505065  -8.305691674429257  40.02105685762263  12.58353276795059  3.2079966719475346  86.55323958144663  8.34550230674747  -70.94231181760122  20.87924360126168  120.000000
8.8473  0.000000  0.000000  0.000000  -33.79244106191817  2.2315666764804725  -8.59084244776271  39.63508271509508  12.519433910660721  3.0710064631590046  83.98559486173608  10.788169615544117  -67.82023841977379  21.22736275893847  120.000000
8.90475  0.000000  0.000000  0.000000  -33.830743806285  2.50761423909562  -8.793397261878825  39.31488897471547  12.478925572047595  3.064172936410272  83.33926799413983  13.85739550449229  -66.6373343945186  21.597705747352418  120.000000
8.9622  0.000000  0.000000  0.000000  -34.03840366935434  3.064744826875052  -8.866641704170874  39.050958157548855  12.45875110964678  3.2248582959779526  83.93306611862192  17.462976846189388  -66.83006836873018  21.928224828730105  120.000000
9.01965  0.000000  0.000000  0.000000  -34.39842331371034  3.938653390940607  -8.756552306686395  38.83298896036654  12.459251934772107  3.590252387650637  85.24240524929199  21.463271281243546  -67.97557106577518  22.179764370084317  120.000000
9.0771  0.000000  0.000000  0.000000  -34.88235771001357  5.138213572710202  -8.400303532860162  38.670336417910995  12.480554567405717  4.1891512008581655  86.8916229731156  25.704173203539906  -69.77808632681312  22.339862562930218  120.000000
9.13455  0.000000  0.000000  0.000000  -35.469781667382286  6.647032538831893  -7.72861185392587  38.591942303921634  12.523030682552427  5.029686141383096  88.59305010099638  30.04296077154515  -72.0073376794993  22.412345973084783  120.000000
9.192  0.000000  0.000000  0.000000  -36.16088313187703  8.417194316636207  -6.672541704211119  38.63449656324518  12.585734500157812  6.0961409125195605  90.11763624287622  34.35217760738309  -74.46923259663765  22.400070254990954  120.000000
9.24945  0.000000  0.000000  0.000000  -36.97653073033048  10.375765136989912  -5.168101657542621  38.83479287405774  12.658920527218992  7.3599467202114734  91.3023913921534  38.52399779753435  -77.0048773006687  22.299412653880527  120.000000
9.3069  0.000000  0.000000  0.000000  -37.947979991324345  12.435091623980338  -3.1643806165067345  39.230351894325906  12.724910280830967  8.786046718227398  92.04735644602573  42.47234678239669  -79.4837778876076  22.101277863760828  120.000000
9.36435  0.000000  0.000000  0.000000  -39.10663093287587  14.506810000775308  -0.6337135203341789  39.8615617272312  12.771046108528886  10.32901302279206  92.29971454226595  46.129690011056496  -81.79333358481578  21.797437449621782  120.000000
9.421800000000001  0.000000  0.000000  0.000000  -40.48359392246613  16.500501430104514  2.4190158131009616  40.75022807878927  12.792483775621015  11.93707263613934  92.04643460784628  49.44030987863451  -83.84070867017783  21.390422921363918  120.000000
9.47925  0.000000  0.000000  0.000000  -42.10759014452603  18.30996415827796  5.946886510298152  41.87197596256287  12.77845404221542  13.564868292474227  91.3200550949798  52.357605052041976  -85.56244121080364  20.900120074775714  120.000000
9.5367  0.000000  0.000000  0.000000  -43.97528105766972  19.82217010495483  9.847982664709884  43.16854453996189  12.716814938682331  15.166592726618372  90.19308981089158  54.85321103753267  -86.92463809495773  20.363611585021015  120.000000
9.59415  0.000000  0.000000  0.000000  -46.02797881338935  20.9487131871047  13.959916767704945  44.57412626968699  12.608538992597722  16.683632503040023  88.75838687446404  56.926994933664226  -87.91360484062176  19.826485538760547  120.000000
9.6516  0.000000  0.000000  0.000000  -48.153604938530854  21.647988317259582  18.07411743699945  46.01504902372759  12.464907754295613  18.051829300191926  87.11940940113617  58.59795934644555  -88.52782220235156  19.331429599920867  120.000000
9.70905  0.000000  0.000000  0.000000  -50.19989837497541  21.93559368984304  21.961988719804072  47.411398642677135  12.299145270940025  19.21157379491767  85.39000356763306  59.894858128569325  -88.77958833054588  18.90921401924901  120.000000
9.7665  0.000000  0.000000  0.000000  -51.99746539743146  21.88222734735887  25.403938046079066  48.6870996178537  12.122548914952068  20.112747734214764  83.69290673236706  60.84964389901541  -88.69975342934872  18.57906831826766  120.000000
9.82395  0.000000  0.000000  0.000000  -53.39384522829761  21.59541275968585  28.21600894362484  49.77481290726696  11.94274045159472  20.71632171505265  82.15183644095681  61.49067883976093  -88.34125905990062  18.35118702373902  120.000000
9.8814  0.000000  0.000000  0.000000  -54.27453964659909  21.190797825903488  30.262220035830328  50.6174840488298  11.76749036638457  20.993508903205708  80.87537524906328  61.838808346992295  -87.77602033591275  18.228044157517974  120.000000
9.93885  0.000000  0.000000  0.000000  -54.56935577959579  20.764073800622754  31.45390663558469  51.170942712322265  11.60768048403429  20.927466457922655  79.94304360097084  61.907647854144244  -87.08604400245527  18.200453167291407  120.000000
9.9963  0.000000  0.000000  0.000000  -54.24812287768919  20.37255065140164  31.7416573847853  51.40939492829295  11.479124983929575  20.515238594318397  79.39413205998663  61.70687474876282  -86.34912426861588  18.247516468239226  120.000000
10.05375  0.000000  0.000000  0.000000  -53.31832831443388  20.0271376346434  31.108933229800495  51.328906742593965  11.401240642034526  19.771047922673052  79.22394414322183  61.2448554477356  -85.62097157460012  18.340659077164787  120.000000
10.1112  0.000000  0.000000  0.000000  -51.82716280409799  19.69042298265022  29.574003746773943  50.94597495074242  11.395182142252846  18.72979113929736  79.38694011963223  60.529334768054895  -84.91696617819224  18.449781325624883  120.000000
10.16865  0.000000  0.000000  0.000000  -49.8672412394563  19.283836796763143  27.20144263947001  50.2929199357966  11.485906927856396  17.448740304882225  79.80559341103692  59.56740711919556  -84.19807619235513  18.547849664944845  120.000000
10.2261  0.000000  0.000000  0.000000  -47.57828658164853  18.705203061112872  24.10995049163975  49.41186416851465  11.700198753800544  16.007167635430037  80.38003610652605  58.36448750299675  -83.37286730625627  18.613283344247165  120.000000
10.28355  0.000000  0.000000  0.000000  -45.13645635632144  17.862704326955114  20.46657381658111  48.354214145607024  12.064200915374494  14.498794128434968  80.99775229614256  56.924963160361756  -82.3182043939051  18.6328866399201  120.000000
10.341000000000001  0.000000  0.000000  0.000000  -42.726673212557145  16.70542891090523  16.46093243278591  47.17881178890889  12.591274183549373  13.024426461798125  81.54534125816828  55.25236103492403  -80.91319975587678  18.608629841834077  120.000000
10.39845  0.000000  0.000000  0.000000  -40.50958666760991  15.24122347493803  12.270979963697584  45.94858546268166  13.273347589976792  11.68006477502659  81.91918415179332  53.34956848798144  -79.06774827065729  18.569669442757377  120.000000
10.4559  0.000000  0.000000  0.000000  -38.59554396181619  13.531827159200613  8.03772857452632  44.71892153162039  14.076648248550951  10.547291696867093  82.03230041169171  51.216754656329705  -76.73893979263848  18.577037919356453  120.000000
10.51335  0.000000  0.000000  0.000000  -37.04000785581009  11.669180571316828  3.859163235457687  43.524071345252054  14.948118281691343  9.687379203127064  81.81239998841801  48.851146662058376  -73.92655952870922  18.710638029044073  120.000000
10.5708  0.000000  0.000000  0.000000  -35.851605919893466  9.7587770553923  -0.19967652783628762  42.38275578773219  15.83490112654833  9.13357097773263  81.20090664980572  46.25653031410496  -70.66291100630596  19.043028002599005  120.000000
10.62825  0.000000  0.000000  0.000000  -34.99942732376465  7.902758347265408  -4.091879392283839  41.31188274608466  16.6998817143322  8.890493746574244  80.15860110713226  43.45201919650409  -67.00604460545175  19.606851237355016  120.000000
10.6857  0.000000  0.000000  0.000000  -34.429405107968925  6.187409406266325  -7.7759716629671845  40.33216846521624  17.526168404671584  8.937861049321816  78.6711695280897  40.47185984647691  -63.03524140212082  20.372213726302324  120.000000
10.74315  0.000000  0.000000  0.000000  -34.0749841869996  4.673691758318927  -11.209457454254913  39.470896204418885  18.31660294903528  9.234477900453575  76.7536620890061  37.35858111551708  -58.84565751845078  21.252921926311664  120.000000
10.8006  0.000000  0.000000  0.000000  -33.86586334107523  3.3872663247989445  -14.344826985765069  38.75101689113454  19.079993830612544  9.734571078656982  74.4657069557535  34.15117853208715  -54.55102178053334  22.13784890116727  120.000000
10.85805  0.000000  0.000000  0.000000  -33.744709163722824  2.3115817366040505  -17.128512404010195  38.17098183050639  19.816728702698168  10.406095249037167  71.91607750067287  30.875723471040075  -50.28151365129073  22.922682949344253  120.000000
10.9155  0.000000  0.000000  0.000000  -33.68267766804274  1.414041293005298  -19.508543140003187  37.70130358086671  20.521820330538613  11.225237575830075  69.23998197376685  27.548758153130088  -46.1679629851385  23.53124631622018  120.000000
10.97295  0.000000  0.000000  0.000000  -33.6733452771343  0.6811932262354515  -21.449368082244067  37.314361222922244  21.20642687813375  12.146625502624982  66.55309901724024  24.196324509498492  -42.31057157654982  23.913907853660017  120.000000
11.0304  0.000000  0.000000  0.000000  -33.73711626943961  0.12347753514928138  -22.937522096205154  37.00136669217582  21.900775566836696  13.100260094806286  63.941418749610385  20.8787952505293  -38.77893611237276  24.03913730157812  120.000000
11.08785  0.000000  0.000000  0.000000  -33.90996442834427  -0.237592135484144  -23.981918991945115  36.765234412642606  22.636861216357186  14.01758125394993  61.52889297034389  17.68972252238707  -35.66634157993125  23.885799473972515  120.000000
